# xmcd
#
# Track frame offsets: 
#        150
#        23865
#        45780
#        57487
#
# Disc length: 950 seconds
#
# Revision: 8
# Processed by: cddbd v1.5.2PL0 Copyright (c) Steve Scherf et al.
# Submitted via: ExactAudioCopy v0.99pb4
#
DISCID=2803b404
DTITLE=R.E.M. - The Automatic Box
DYEAR=1993
DGENRE=Rock
TTITLE0=It's A Free World Baby
TTITLE1=Fretless
TTITLE2=Chance [Dub]
TTITLE3=Star Me Kitten [Demo]
EXTD=
EXTT0=
EXTT1=
EXTT2=
EXTT3=
PLAYORDER=
